<svg id="visual" viewBox="0 0 900 300" width="900" height="300" xmlns="http://www.w3.org/2000/svg" xmlns:xlink="http://www.w3.org/1999/xlink" version="1.1"><rect x="0" y="0" width="900" height="300" fill="#ffffff"></rect><path d="M0 187L18.8 181C37.7 175 75.3 163 112.8 168C150.3 173 187.7 195 225.2 204.7C262.7 214.3 300.3 211.7 337.8 203.5C375.3 195.3 412.7 181.7 450.2 177.5C487.7 173.3 525.3 178.7 562.8 178C600.3 177.3 637.7 170.7 675.2 177C712.7 183.3 750.3 202.7 787.8 203C825.3 203.3 862.7 184.7 881.3 175.3L900 166L900 0L881.3 0C862.7 0 825.3 0 787.8 0C750.3 0 712.7 0 675.2 0C637.7 0 600.3 0 562.8 0C525.3 0 487.7 0 450.2 0C412.7 0 375.3 0 337.8 0C300.3 0 262.7 0 225.2 0C187.7 0 150.3 0 112.8 0C75.3 0 37.7 0 18.8 0L0 0Z" fill="#fffbfa"></path><path d="M0 149L18.8 143.8C37.7 138.7 75.3 128.3 112.8 133.7C150.3 139 187.7 160 225.2 160C262.7 160 300.3 139 337.8 141.3C375.3 143.7 412.7 169.3 450.2 172.5C487.7 175.7 525.3 156.3 562.8 145.8C600.3 135.3 637.7 133.7 675.2 132C712.7 130.3 750.3 128.7 787.8 134.8C825.3 141 862.7 155 881.3 162L900 169L900 0L881.3 0C862.7 0 825.3 0 787.8 0C750.3 0 712.7 0 675.2 0C637.7 0 600.3 0 562.8 0C525.3 0 487.7 0 450.2 0C412.7 0 375.3 0 337.8 0C300.3 0 262.7 0 225.2 0C187.7 0 150.3 0 112.8 0C75.3 0 37.7 0 18.8 0L0 0Z" fill="#fff5f3"></path><path d="M0 155L18.8 154.3C37.7 153.7 75.3 152.3 112.8 147.7C150.3 143 187.7 135 225.2 126.8C262.7 118.7 300.3 110.3 337.8 105.5C375.3 100.7 412.7 99.3 450.2 99.2C487.7 99 525.3 100 562.8 111.7C600.3 123.3 637.7 145.7 675.2 155.5C712.7 165.3 750.3 162.7 787.8 161.5C825.3 160.3 862.7 160.7 881.3 160.8L900 161L900 0L881.3 0C862.7 0 825.3 0 787.8 0C750.3 0 712.7 0 675.2 0C637.7 0 600.3 0 562.8 0C525.3 0 487.7 0 450.2 0C412.7 0 375.3 0 337.8 0C300.3 0 262.7 0 225.2 0C187.7 0 150.3 0 112.8 0C75.3 0 37.7 0 18.8 0L0 0Z" fill="#feefec"></path><path d="M0 124L18.8 119.8C37.7 115.7 75.3 107.3 112.8 107.8C150.3 108.3 187.7 117.7 225.2 124.2C262.7 130.7 300.3 134.3 337.8 127.2C375.3 120 412.7 102 450.2 96.5C487.7 91 525.3 98 562.8 103C600.3 108 637.7 111 675.2 114.5C712.7 118 750.3 122 787.8 117C825.3 112 862.7 98 881.3 91L900 84L900 0L881.3 0C862.7 0 825.3 0 787.8 0C750.3 0 712.7 0 675.2 0C637.7 0 600.3 0 562.8 0C525.3 0 487.7 0 450.2 0C412.7 0 375.3 0 337.8 0C300.3 0 262.7 0 225.2 0C187.7 0 150.3 0 112.8 0C75.3 0 37.7 0 18.8 0L0 0Z" fill="#fee9e5"></path><path d="M0 67L18.8 73.2C37.7 79.3 75.3 91.7 112.8 91.8C150.3 92 187.7 80 225.2 78.2C262.7 76.3 300.3 84.7 337.8 85.2C375.3 85.7 412.7 78.3 450.2 79.5C487.7 80.7 525.3 90.3 562.8 91.2C600.3 92 637.7 84 675.2 79.3C712.7 74.7 750.3 73.3 787.8 71.7C825.3 70 862.7 68 881.3 67L900 66L900 0L881.3 0C862.7 0 825.3 0 787.8 0C750.3 0 712.7 0 675.2 0C637.7 0 600.3 0 562.8 0C525.3 0 487.7 0 450.2 0C412.7 0 375.3 0 337.8 0C300.3 0 262.7 0 225.2 0C187.7 0 150.3 0 112.8 0C75.3 0 37.7 0 18.8 0L0 0Z" fill="#fde3de"></path><path d="M0 52L18.8 50.2C37.7 48.3 75.3 44.7 112.8 46.7C150.3 48.7 187.7 56.3 225.2 56.5C262.7 56.7 300.3 49.3 337.8 46.8C375.3 44.3 412.7 46.7 450.2 52.2C487.7 57.7 525.3 66.3 562.8 71.7C600.3 77 637.7 79 675.2 74.5C712.7 70 750.3 59 787.8 54.8C825.3 50.7 862.7 53.3 881.3 54.7L900 56L900 0L881.3 0C862.7 0 825.3 0 787.8 0C750.3 0 712.7 0 675.2 0C637.7 0 600.3 0 562.8 0C525.3 0 487.7 0 450.2 0C412.7 0 375.3 0 337.8 0C300.3 0 262.7 0 225.2 0C187.7 0 150.3 0 112.8 0C75.3 0 37.7 0 18.8 0L0 0Z" fill="#fdddd8"></path><path d="M0 45L18.8 45.7C37.7 46.3 75.3 47.7 112.8 45.7C150.3 43.7 187.7 38.3 225.2 34.5C262.7 30.7 300.3 28.3 337.8 28.5C375.3 28.7 412.7 31.3 450.2 33.2C487.7 35 525.3 36 562.8 35.8C600.3 35.7 637.7 34.3 675.2 34C712.7 33.7 750.3 34.3 787.8 32.8C825.3 31.3 862.7 27.7 881.3 25.8L900 24L900 0L881.3 0C862.7 0 825.3 0 787.8 0C750.3 0 712.7 0 675.2 0C637.7 0 600.3 0 562.8 0C525.3 0 487.7 0 450.2 0C412.7 0 375.3 0 337.8 0C300.3 0 262.7 0 225.2 0C187.7 0 150.3 0 112.8 0C75.3 0 37.7 0 18.8 0L0 0Z" fill="#fcd7d1"></path></svg>