<svg id="visual" viewBox="0 0 900 300" width="900" height="300" xmlns="http://www.w3.org/2000/svg" xmlns:xlink="http://www.w3.org/1999/xlink" version="1.1"><rect x="0" y="0" width="900" height="300" fill="#ffffff"></rect><path d="M0 78L18.8 83.2C37.7 88.3 75.3 98.7 112.8 111C150.3 123.3 187.7 137.7 225.2 131C262.7 124.3 300.3 96.7 337.8 88.2C375.3 79.7 412.7 90.3 450.2 102.8C487.7 115.3 525.3 129.7 562.8 130.5C600.3 131.3 637.7 118.7 675.2 108.8C712.7 99 750.3 92 787.8 100.2C825.3 108.3 862.7 131.7 881.3 143.3L900 155L900 301L881.3 301C862.7 301 825.3 301 787.8 301C750.3 301 712.7 301 675.2 301C637.7 301 600.3 301 562.8 301C525.3 301 487.7 301 450.2 301C412.7 301 375.3 301 337.8 301C300.3 301 262.7 301 225.2 301C187.7 301 150.3 301 112.8 301C75.3 301 37.7 301 18.8 301L0 301Z" fill="#fffbfa"></path><path d="M0 101L18.8 113C37.7 125 75.3 149 112.8 155C150.3 161 187.7 149 225.2 140.3C262.7 131.7 300.3 126.3 337.8 129.2C375.3 132 412.7 143 450.2 146C487.7 149 525.3 144 562.8 144.7C600.3 145.3 637.7 151.7 675.2 146.8C712.7 142 750.3 126 787.8 120C825.3 114 862.7 118 881.3 120L900 122L900 301L881.3 301C862.7 301 825.3 301 787.8 301C750.3 301 712.7 301 675.2 301C637.7 301 600.3 301 562.8 301C525.3 301 487.7 301 450.2 301C412.7 301 375.3 301 337.8 301C300.3 301 262.7 301 225.2 301C187.7 301 150.3 301 112.8 301C75.3 301 37.7 301 18.8 301L0 301Z" fill="#fff5f3"></path><path d="M0 187L18.8 188C37.7 189 75.3 191 112.8 189.8C150.3 188.7 187.7 184.3 225.2 182.5C262.7 180.7 300.3 181.3 337.8 174.7C375.3 168 412.7 154 450.2 146.8C487.7 139.7 525.3 139.3 562.8 139.5C600.3 139.7 637.7 140.3 675.2 150.3C712.7 160.3 750.3 179.7 787.8 184.7C825.3 189.7 862.7 180.3 881.3 175.7L900 171L900 301L881.3 301C862.7 301 825.3 301 787.8 301C750.3 301 712.7 301 675.2 301C637.7 301 600.3 301 562.8 301C525.3 301 487.7 301 450.2 301C412.7 301 375.3 301 337.8 301C300.3 301 262.7 301 225.2 301C187.7 301 150.3 301 112.8 301C75.3 301 37.7 301 18.8 301L0 301Z" fill="#feefec"></path><path d="M0 168L18.8 167.5C37.7 167 75.3 166 112.8 172.2C150.3 178.3 187.7 191.7 225.2 195.7C262.7 199.7 300.3 194.3 337.8 193.2C375.3 192 412.7 195 450.2 198C487.7 201 525.3 204 562.8 206.7C600.3 209.3 637.7 211.7 675.2 213.3C712.7 215 750.3 216 787.8 207.2C825.3 198.3 862.7 179.7 881.3 170.3L900 161L900 301L881.3 301C862.7 301 825.3 301 787.8 301C750.3 301 712.7 301 675.2 301C637.7 301 600.3 301 562.8 301C525.3 301 487.7 301 450.2 301C412.7 301 375.3 301 337.8 301C300.3 301 262.7 301 225.2 301C187.7 301 150.3 301 112.8 301C75.3 301 37.7 301 18.8 301L0 301Z" fill="#fee9e5"></path><path d="M0 206L18.8 207.2C37.7 208.3 75.3 210.7 112.8 212.8C150.3 215 187.7 217 225.2 220.3C262.7 223.7 300.3 228.3 337.8 225.3C375.3 222.3 412.7 211.7 450.2 210.7C487.7 209.7 525.3 218.3 562.8 218.5C600.3 218.7 637.7 210.3 675.2 211.2C712.7 212 750.3 222 787.8 225.5C825.3 229 862.7 226 881.3 224.5L900 223L900 301L881.3 301C862.7 301 825.3 301 787.8 301C750.3 301 712.7 301 675.2 301C637.7 301 600.3 301 562.8 301C525.3 301 487.7 301 450.2 301C412.7 301 375.3 301 337.8 301C300.3 301 262.7 301 225.2 301C187.7 301 150.3 301 112.8 301C75.3 301 37.7 301 18.8 301L0 301Z" fill="#fde3de"></path><path d="M0 238L18.8 240C37.7 242 75.3 246 112.8 243C150.3 240 187.7 230 225.2 227C262.7 224 300.3 228 337.8 229.7C375.3 231.3 412.7 230.7 450.2 231.7C487.7 232.7 525.3 235.3 562.8 239.2C600.3 243 637.7 248 675.2 244.7C712.7 241.3 750.3 229.7 787.8 224.7C825.3 219.7 862.7 221.3 881.3 222.2L900 223L900 301L881.3 301C862.7 301 825.3 301 787.8 301C750.3 301 712.7 301 675.2 301C637.7 301 600.3 301 562.8 301C525.3 301 487.7 301 450.2 301C412.7 301 375.3 301 337.8 301C300.3 301 262.7 301 225.2 301C187.7 301 150.3 301 112.8 301C75.3 301 37.7 301 18.8 301L0 301Z" fill="#fdddd8"></path><path d="M0 271L18.8 269.2C37.7 267.3 75.3 263.7 112.8 264C150.3 264.3 187.7 268.7 225.2 270.3C262.7 272 300.3 271 337.8 270.2C375.3 269.3 412.7 268.7 450.2 265.2C487.7 261.7 525.3 255.3 562.8 254.2C600.3 253 637.7 257 675.2 258C712.7 259 750.3 257 787.8 255.2C825.3 253.3 862.7 251.7 881.3 250.8L900 250L900 301L881.3 301C862.7 301 825.3 301 787.8 301C750.3 301 712.7 301 675.2 301C637.7 301 600.3 301 562.8 301C525.3 301 487.7 301 450.2 301C412.7 301 375.3 301 337.8 301C300.3 301 262.7 301 225.2 301C187.7 301 150.3 301 112.8 301C75.3 301 37.7 301 18.8 301L0 301Z" fill="#fcd7d1"></path></svg>